HIERARCHY
ROOT RootJoint
{
    OFFSET   0.000000   0.000000   0.000000
    CHANNELS 6 Xposition Yposition Zposition Xrotation Yrotation Zrotation
    JOINT pelvis_lowerback
    {
        OFFSET   0.000000   0.093605   0.000000
        CHANNELS 3 Xrotation Yrotation Zrotation
        JOINT lowerback_torso
        {
            OFFSET   0.000000   0.100000   0.000000
            CHANNELS 3 Xrotation Yrotation Zrotation
            JOINT torso_head
            {
                OFFSET   0.000000   0.282350   0.000000
                CHANNELS 3 Xrotation Yrotation Zrotation
                End Site
                {
                    OFFSET   0.000000   0.192650   0.000000
                }
            }
            JOINT rTorso_Clavicle
            {
                OFFSET  -0.001000   0.157500   0.000000
                CHANNELS 3 Xrotation Yrotation Zrotation
                JOINT rShoulder
                {
                    OFFSET  -0.117647   0.000000   0.000000
                    CHANNELS 3 Xrotation Yrotation Zrotation
                    JOINT rElbow
                    {
                        OFFSET  -0.245000   0.000000   0.000000
                        CHANNELS 3 Xrotation Yrotation Zrotation
                        JOINT rWrist
                        {
                            OFFSET  -0.240000   0.000000   0.000000
                            CHANNELS 3 Xrotation Yrotation Zrotation
                            End Site
                            {
                                OFFSET  -0.116353  -0.002500   0.000000
                            }
                        }
                    }
                }
            }
            JOINT lTorso_Clavicle
            {
                OFFSET   0.001000   0.157500   0.000000
                CHANNELS 3 Xrotation Yrotation Zrotation
                JOINT lShoulder
                {
                    OFFSET   0.117647   0.000000   0.000000
                    CHANNELS 3 Xrotation Yrotation Zrotation
                    JOINT lElbow
                    {
                        OFFSET   0.245000   0.000000   0.000000
                        CHANNELS 3 Xrotation Yrotation Zrotation
                        JOINT lWrist
                        {
                            OFFSET   0.240000   0.000000   0.000000
                            CHANNELS 3 Xrotation Yrotation Zrotation
                            End Site
                            {
                                OFFSET   0.116353  -0.002500   0.000000
                            }
                        }
                    }
                }
            }
        }
    }
    JOINT rHip
    {
        OFFSET  -0.100000  -0.051395   0.000000
        CHANNELS 3 Xrotation Yrotation Zrotation
        JOINT rKnee
        {
            OFFSET   0.000000  -0.410000   0.000000
            CHANNELS 3 Xrotation Yrotation Zrotation
            JOINT rAnkle
            {
                OFFSET   0.000000  -0.390000   0.000000
                CHANNELS 3 Xrotation Yrotation Zrotation
                JOINT rToeJoint
                {
                    OFFSET   0.000000  -0.050000   0.130000
                    CHANNELS 3 Xrotation Yrotation Zrotation
                    End Site
                    {
                        OFFSET  -0.010000   0.002000   0.060000
                    }
                }
            }
        }
    }
    JOINT lHip
    {
        OFFSET   0.100000  -0.051395   0.000000
        CHANNELS 3 Xrotation Yrotation Zrotation
        JOINT lKnee
        {
            OFFSET   0.000000  -0.410000   0.000000
            CHANNELS 3 Xrotation Yrotation Zrotation
            JOINT lAnkle
            {
                OFFSET   0.000000  -0.390000   0.000000
                CHANNELS 3 Xrotation Yrotation Zrotation
                JOINT lToeJoint
                {
                    OFFSET   0.000000  -0.050000   0.130000
                    CHANNELS 3 Xrotation Yrotation Zrotation
                    End Site
                    {
                        OFFSET   0.010000   0.002000   0.060000
                    }
                }
            }
        }
    }
}
MOTION
Frames: 7
Frame Time:   0.008333
 -2.313192   0.892081   4.149057   0.000545   2.572908  -1.765337   6.697918  -2.366109  -2.800152   3.889291  -1.236588   1.697549  -2.028342   1.309056   2.987158   2.129811  -2.723579   8.815072   4.795735   6.703031  49.305162  -0.000157  22.543593   0.000230   3.867883   3.094045   1.260158   3.075066   0.627153  -7.796111   8.153860  -9.499015 -48.939786   0.000029 -19.835625   0.000354   5.474452  -3.690644  -1.688013 -22.473581  -3.027078  -5.817441  44.468629  -0.000267   0.000455 -13.468580 -12.823594   0.493421  -2.082994  -0.001086  -0.001357  10.195245   0.061174   0.725647  11.360658   0.000295  -0.001170 -21.908976   0.801121   5.697509   0.264411  -0.000055  -0.000016
 -2.313493   0.891572   4.152967   0.058752   2.634839  -1.895369   6.925680  -2.506568  -2.755515   3.861610  -1.294085   1.776786  -2.086437   1.363333   2.964229   2.111974  -2.807191   8.839821   4.903377   6.643174  49.221119  -0.000161  22.618037   0.000223   3.919316   3.136160   1.228339   3.039043   0.484591  -7.796385   8.103878  -9.692794 -48.808620   0.000085 -19.974657   0.000897   5.559808  -3.653081  -1.698049 -22.928967  -3.054207  -5.790960  43.295545  -0.000835   0.000387 -13.515227 -12.895372   0.613298  -2.069938  -0.000921  -0.001090  10.573880   0.190124   0.918270  11.019797   0.000315  -0.001441 -21.940904   0.751041   5.470340   0.171231  -0.000158  -0.000088
 -2.313805   0.891006   4.156897   0.134412   2.691667  -2.006833   7.149800  -2.644515  -2.721035   3.830547  -1.357681   1.848408  -2.142450   1.416534   2.940976   2.097850  -2.885858   8.861188   5.006214   6.585568  49.143527  -0.000157  22.686509   0.000211   3.969644   3.174653   1.197315   2.986115   0.335063  -7.786950   8.041283  -9.886893 -48.680430   0.000119 -20.115004   0.001337   5.641857  -3.667568  -1.695159 -23.404121  -3.062351  -5.795135  42.059767  -0.001487   0.000344 -13.564022 -12.960510   0.725139  -2.056091  -0.000791  -0.000875  10.933941   0.315694   1.088969  10.681664   0.000335  -0.001634 -21.973139   0.702975   5.256802   0.074579  -0.000235  -0.000145
 -2.314144   0.890378   4.160907   0.209367   2.746133  -2.108690   7.372259  -2.784038  -2.689497   3.806952  -1.427943   1.915423  -2.193027   1.466545   2.918716   2.085728  -2.959709   8.880250   5.103139   6.530875  49.070878  -0.000150  22.749734   0.000199   4.018233   3.207159   1.168665   2.924575   0.184212  -7.772989   7.973363 -10.075711 -48.556304   0.000144 -20.250863   0.001669   5.719808  -3.710286  -1.678105 -23.892142  -3.059661  -5.816560  40.864667  -0.002070   0.000303 -13.611155 -13.021086   0.829334  -2.044159  -0.000677  -0.000701  11.291896   0.433604   1.250127  10.360660   0.000358  -0.001737 -22.015130   0.657547   5.054842  -0.030137  -0.000294  -0.000189
 -2.314520   0.889697   4.165034   0.279950   2.799388  -2.204762   7.589114  -2.924387  -2.658864   3.791343  -1.503262   1.979487  -2.238386   1.513224   2.897879   2.076720  -3.030721   8.898523   5.195506   6.478054  49.003110  -0.000141  22.807643   0.000190   4.065027   3.232585   1.141905   2.859870   0.036196  -7.757701   7.904379 -10.256686 -48.437809   0.000163 -20.380380   0.001900   5.794335  -3.766808  -1.652145 -24.382823  -3.050001  -5.847912  39.732577  -0.002542   0.000244 -13.655839 -13.077557   0.926479  -2.034640  -0.000574  -0.000561  11.651206   0.544072   1.406981  10.062300   0.000383  -0.001765 -22.064321   0.614710   4.864277  -0.154994  -0.000349  -0.000230
 -2.314937   0.888973   4.169303   0.346740   2.851665  -2.296514   7.796775  -3.063886  -2.628761   3.781646  -1.581750   2.041042  -2.279491   1.556710   2.878543   2.071507  -3.100042   8.916768   5.284306   6.426476  48.940416  -0.000130  22.860335   0.000182   4.110036   3.250188   1.117614   2.795223  -0.106467  -7.742727   7.836742 -10.428596 -48.325998   0.000180 -20.502844   0.002041   5.865749  -3.829766  -1.621859 -24.868959  -3.035474  -5.885217  38.667221  -0.002896   0.000166 -13.697957 -13.130217   1.017085  -2.027397  -0.000483  -0.000449  12.011553   0.647692   1.561609   9.788370   0.000407  -0.001737 -22.116569   0.574235   4.685218  -0.309532  -0.000401  -0.000271
 -2.315399   0.888211   4.173723   0.411479   2.903018  -2.384573   7.992833  -3.200992  -2.599228   3.775621  -1.661741   2.100098  -2.317229   1.597197   2.860651   2.070051  -3.168034   8.935210   5.369939   6.375982  48.882755  -0.000118  22.908137   0.000175   4.153286   3.260150   1.096308   2.732443  -0.242443  -7.728880   7.771744 -10.590997 -48.221340   0.000195 -20.618099   0.002107   5.934222  -3.895323  -1.590233 -25.345670  -3.017466  -5.926043  37.667502  -0.003139   0.000074 -13.737563 -13.179321   1.101609  -2.022176  -0.000403  -0.000358  12.371633   0.745008   1.714970   9.538950   0.000427  -0.001669 -22.168532   0.535810   4.517605  -0.499669  -0.000448  -0.000309
